<mxfile host="Electron" modified="2024-06-07T20:55:38.325Z" agent="Mozilla/5.0 (Windows NT 10.0; Win64; x64) AppleWebKit/537.36 (KHTML, like Gecko) draw.io/24.5.1 Chrome/124.0.6367.207 Electron/30.0.6 Safari/537.36" etag="ii2QvclPAUqIfb__9zEG" version="24.5.1" type="device">
  <diagram name="Seite-1" id="IHEh0ro0GU1LLYbEToWi">
    <mxGraphModel dx="1098" dy="820" grid="1" gridSize="10" guides="1" tooltips="1" connect="1" arrows="1" fold="1" page="1" pageScale="1" pageWidth="827" pageHeight="1169" math="0" shadow="0">
      <root>
        <mxCell id="0" />
        <mxCell id="1" parent="0" />
        <mxCell id="qbAL-MAwQbNljHkPSHKH-1" value="" style="edgeStyle=orthogonalEdgeStyle;rounded=0;orthogonalLoop=1;jettySize=auto;html=1;" edge="1" parent="1" source="qbAL-MAwQbNljHkPSHKH-2" target="qbAL-MAwQbNljHkPSHKH-13">
          <mxGeometry relative="1" as="geometry" />
        </mxCell>
        <mxCell id="qbAL-MAwQbNljHkPSHKH-2" value="X(z)" style="whiteSpace=wrap;html=1;aspect=fixed;" vertex="1" parent="1">
          <mxGeometry x="80" y="320" width="40" height="40" as="geometry" />
        </mxCell>
        <mxCell id="qbAL-MAwQbNljHkPSHKH-3" value="Y(z)" style="whiteSpace=wrap;html=1;aspect=fixed;" vertex="1" parent="1">
          <mxGeometry x="600" y="320" width="40" height="40" as="geometry" />
        </mxCell>
        <mxCell id="qbAL-MAwQbNljHkPSHKH-4" style="edgeStyle=orthogonalEdgeStyle;rounded=0;orthogonalLoop=1;jettySize=auto;html=1;exitX=0.5;exitY=1;exitDx=0;exitDy=0;entryX=0.5;entryY=0;entryDx=0;entryDy=0;" edge="1" parent="1" source="qbAL-MAwQbNljHkPSHKH-5" target="qbAL-MAwQbNljHkPSHKH-8">
          <mxGeometry relative="1" as="geometry" />
        </mxCell>
        <mxCell id="qbAL-MAwQbNljHkPSHKH-24" value="" style="edgeStyle=orthogonalEdgeStyle;rounded=0;orthogonalLoop=1;jettySize=auto;html=1;" edge="1" parent="1" source="qbAL-MAwQbNljHkPSHKH-5" target="qbAL-MAwQbNljHkPSHKH-23">
          <mxGeometry relative="1" as="geometry" />
        </mxCell>
        <mxCell id="qbAL-MAwQbNljHkPSHKH-5" value="z&lt;sup&gt;-1&lt;/sup&gt;" style="whiteSpace=wrap;html=1;aspect=fixed;" vertex="1" parent="1">
          <mxGeometry x="480" y="400" width="40" height="40" as="geometry" />
        </mxCell>
        <mxCell id="qbAL-MAwQbNljHkPSHKH-6" value="" style="edgeStyle=orthogonalEdgeStyle;rounded=0;orthogonalLoop=1;jettySize=auto;html=1;" edge="1" parent="1" source="qbAL-MAwQbNljHkPSHKH-8" target="qbAL-MAwQbNljHkPSHKH-10">
          <mxGeometry relative="1" as="geometry" />
        </mxCell>
        <mxCell id="qbAL-MAwQbNljHkPSHKH-7" value="" style="edgeStyle=orthogonalEdgeStyle;rounded=0;orthogonalLoop=1;jettySize=auto;html=1;" edge="1" parent="1" source="qbAL-MAwQbNljHkPSHKH-8" target="qbAL-MAwQbNljHkPSHKH-17">
          <mxGeometry relative="1" as="geometry" />
        </mxCell>
        <mxCell id="qbAL-MAwQbNljHkPSHKH-8" value="z&lt;sup&gt;-1&lt;/sup&gt;" style="whiteSpace=wrap;html=1;aspect=fixed;" vertex="1" parent="1">
          <mxGeometry x="480" y="480" width="40" height="40" as="geometry" />
        </mxCell>
        <mxCell id="qbAL-MAwQbNljHkPSHKH-9" value="" style="edgeStyle=orthogonalEdgeStyle;rounded=0;orthogonalLoop=1;jettySize=auto;html=1;" edge="1" parent="1" source="qbAL-MAwQbNljHkPSHKH-10" target="qbAL-MAwQbNljHkPSHKH-19">
          <mxGeometry relative="1" as="geometry" />
        </mxCell>
        <mxCell id="qbAL-MAwQbNljHkPSHKH-10" value="z&lt;sup&gt;-1&lt;/sup&gt;" style="whiteSpace=wrap;html=1;aspect=fixed;" vertex="1" parent="1">
          <mxGeometry x="480" y="560" width="40" height="40" as="geometry" />
        </mxCell>
        <mxCell id="qbAL-MAwQbNljHkPSHKH-11" style="edgeStyle=orthogonalEdgeStyle;rounded=0;orthogonalLoop=1;jettySize=auto;html=1;exitX=1;exitY=0.5;exitDx=0;exitDy=0;entryX=0;entryY=0.5;entryDx=0;entryDy=0;" edge="1" parent="1" source="qbAL-MAwQbNljHkPSHKH-13" target="qbAL-MAwQbNljHkPSHKH-3">
          <mxGeometry relative="1" as="geometry" />
        </mxCell>
        <mxCell id="qbAL-MAwQbNljHkPSHKH-12" style="edgeStyle=orthogonalEdgeStyle;rounded=0;orthogonalLoop=1;jettySize=auto;html=1;exitX=1;exitY=0.5;exitDx=0;exitDy=0;entryX=0.5;entryY=0;entryDx=0;entryDy=0;" edge="1" parent="1" source="qbAL-MAwQbNljHkPSHKH-13" target="qbAL-MAwQbNljHkPSHKH-5">
          <mxGeometry relative="1" as="geometry" />
        </mxCell>
        <mxCell id="qbAL-MAwQbNljHkPSHKH-13" value="+" style="ellipse;whiteSpace=wrap;html=1;aspect=fixed;" vertex="1" parent="1">
          <mxGeometry x="200" y="320" width="40" height="40" as="geometry" />
        </mxCell>
        <mxCell id="qbAL-MAwQbNljHkPSHKH-22" value="" style="edgeStyle=orthogonalEdgeStyle;rounded=0;orthogonalLoop=1;jettySize=auto;html=1;" edge="1" parent="1" source="qbAL-MAwQbNljHkPSHKH-15" target="qbAL-MAwQbNljHkPSHKH-20">
          <mxGeometry relative="1" as="geometry" />
        </mxCell>
        <mxCell id="qbAL-MAwQbNljHkPSHKH-15" value="+" style="ellipse;whiteSpace=wrap;html=1;aspect=fixed;" vertex="1" parent="1">
          <mxGeometry x="200" y="480" width="40" height="40" as="geometry" />
        </mxCell>
        <mxCell id="qbAL-MAwQbNljHkPSHKH-16" style="edgeStyle=orthogonalEdgeStyle;rounded=0;orthogonalLoop=1;jettySize=auto;html=1;exitX=1;exitY=0.5;exitDx=0;exitDy=0;entryX=1;entryY=0.5;entryDx=0;entryDy=0;" edge="1" parent="1" source="qbAL-MAwQbNljHkPSHKH-17" target="qbAL-MAwQbNljHkPSHKH-15">
          <mxGeometry relative="1" as="geometry" />
        </mxCell>
        <mxCell id="qbAL-MAwQbNljHkPSHKH-17" value="3" style="triangle;whiteSpace=wrap;html=1;direction=west;" vertex="1" parent="1">
          <mxGeometry x="360" y="480" width="40" height="40" as="geometry" />
        </mxCell>
        <mxCell id="qbAL-MAwQbNljHkPSHKH-18" style="edgeStyle=orthogonalEdgeStyle;rounded=0;orthogonalLoop=1;jettySize=auto;html=1;entryX=0.5;entryY=1;entryDx=0;entryDy=0;" edge="1" parent="1" source="qbAL-MAwQbNljHkPSHKH-19" target="qbAL-MAwQbNljHkPSHKH-15">
          <mxGeometry relative="1" as="geometry">
            <mxPoint x="220" y="530" as="targetPoint" />
          </mxGeometry>
        </mxCell>
        <mxCell id="qbAL-MAwQbNljHkPSHKH-19" value="-1" style="triangle;whiteSpace=wrap;html=1;direction=west;" vertex="1" parent="1">
          <mxGeometry x="360" y="560" width="40" height="40" as="geometry" />
        </mxCell>
        <mxCell id="qbAL-MAwQbNljHkPSHKH-21" value="" style="edgeStyle=orthogonalEdgeStyle;rounded=0;orthogonalLoop=1;jettySize=auto;html=1;" edge="1" parent="1" source="qbAL-MAwQbNljHkPSHKH-20" target="qbAL-MAwQbNljHkPSHKH-13">
          <mxGeometry relative="1" as="geometry" />
        </mxCell>
        <mxCell id="qbAL-MAwQbNljHkPSHKH-20" value="+" style="ellipse;whiteSpace=wrap;html=1;aspect=fixed;" vertex="1" parent="1">
          <mxGeometry x="200" y="400" width="40" height="40" as="geometry" />
        </mxCell>
        <mxCell id="qbAL-MAwQbNljHkPSHKH-25" style="edgeStyle=orthogonalEdgeStyle;rounded=0;orthogonalLoop=1;jettySize=auto;html=1;exitX=1;exitY=0.5;exitDx=0;exitDy=0;entryX=1;entryY=0.5;entryDx=0;entryDy=0;" edge="1" parent="1" source="qbAL-MAwQbNljHkPSHKH-23" target="qbAL-MAwQbNljHkPSHKH-20">
          <mxGeometry relative="1" as="geometry" />
        </mxCell>
        <mxCell id="qbAL-MAwQbNljHkPSHKH-23" value="-3" style="triangle;whiteSpace=wrap;html=1;direction=west;" vertex="1" parent="1">
          <mxGeometry x="360" y="400" width="40" height="40" as="geometry" />
        </mxCell>
      </root>
    </mxGraphModel>
  </diagram>
</mxfile>
